<?xml version="1.0" encoding="iso-8859-1"?>
<!-- Generator: Adobe Illustrator 19.0.0, SVG Export Plug-In . SVG Version: 6.00 Build 0)  -->
<svg version="1.1" id="Layer_1" xmlns="http://www.w3.org/2000/svg" xmlns:xlink="http://www.w3.org/1999/xlink" x="0px" y="0px"
	 viewBox="0 0 512 512" style="enable-background:new 0 0 512 512;" xml:space="preserve">
<g>
	<path style="fill:#3F4A5A;" d="M439.434,217.969H72.556V119.02c0-12.332-10.025-22.359-22.351-22.359V81.756
		c20.544,0,37.256,16.717,37.256,37.263v84.045h337.07V119.02c0-20.547,16.712-37.263,37.258-37.263V96.66
		c-12.326,0-22.351,10.028-22.351,22.359v98.949H439.434z"/>
	<path style="fill:#3F4A5A;" d="M461.788,512c-20.544,0-37.258-16.714-37.258-37.266v-84.05H87.46v84.05
		C87.46,495.283,70.748,512,50.204,512v-14.904c12.329,0,22.351-10.03,22.351-22.359v-98.954h366.881v98.954
		c0,12.329,10.025,22.359,22.351,22.359V512z"/>
	<rect x="50.202" y="289.434" style="fill:#3F4A5A;" width="411.597" height="14.907"/>
</g>
<path style="fill:#F67656;" d="M134.316,151.967c-17.231,36.426-27.366,80.96-27.366,129.009
	c0,123.471,66.711,223.572,149.048,223.572V210.929C207.708,210.929,164.362,188.209,134.316,151.967z"/>
<path style="fill:#E66847;" d="M377.674,151.967c17.226,36.426,27.366,80.96,27.366,129.009
	c0,123.471-66.714,223.572-149.048,223.572V210.929C304.279,210.929,347.628,188.209,377.674,151.967z"/>
<path style="fill:#3F4A5A;" d="M377.674,151.967c-30.047,36.242-73.395,58.962-121.679,58.962
	c-48.287,0-91.633-22.72-121.679-58.959c26.944-57.183,71.368-94.561,121.679-94.561C306.314,57.408,350.728,94.787,377.674,151.967
	z"/>
<g>
	<path style="fill:#FFFFFF;" d="M232.648,119.02c0,9.866-8.005,17.887-17.884,17.887s-17.884-8.02-17.884-17.887
		c0-9.876,8.003-17.887,17.884-17.887C224.645,101.133,232.648,109.143,232.648,119.02z"/>
	<path style="fill:#FFFFFF;" d="M315.11,119.02c0,9.866-7.995,17.887-17.882,17.887c-9.871,0-17.887-8.02-17.887-17.887
		c0-9.876,8.015-17.887,17.887-17.887C307.116,101.133,315.11,109.143,315.11,119.02z"/>
</g>
<g>
	<path style="fill:#3F4A5A;" d="M304.681,72.044h-14.909C289.769,32.32,322.089,0,361.815,0v14.904
		C330.309,14.904,304.681,40.535,304.681,72.044z"/>
	<path style="fill:#3F4A5A;" d="M222.211,72.044h-14.904c0-31.508-25.628-57.139-57.132-57.139V0
		C189.898,0,222.211,32.32,222.211,72.044z"/>
</g>
<g>
</g>
<g>
</g>
<g>
</g>
<g>
</g>
<g>
</g>
<g>
</g>
<g>
</g>
<g>
</g>
<g>
</g>
<g>
</g>
<g>
</g>
<g>
</g>
<g>
</g>
<g>
</g>
<g>
</g>
</svg>
